<svg width="465" height="61" viewBox="0 0 465 61" fill="none" xmlns="http://www.w3.org/2000/svg">
<rect x="0.5" y="0.900391" width="464" height="59" rx="19.5" fill="white"/>
<rect x="0.5" y="0.900391" width="464" height="59" rx="19.5" stroke="#D8D8D8"/>
<path opacity="0.2" d="M37.5 24.7754L30 31.6504L22.5 24.7754H37.5Z" fill="#009379"/>
<path d="M22.5 24.7754H37.5V35.4004C37.5 35.5662 37.4342 35.7251 37.3169 35.8423C37.1997 35.9595 37.0408 36.0254 36.875 36.0254H23.125C22.9592 36.0254 22.8003 35.9595 22.6831 35.8423C22.5658 35.7251 22.5 35.5662 22.5 35.4004V24.7754Z" stroke="#009379" stroke-width="0.740741" stroke-linecap="round" stroke-linejoin="round"/>
<path d="M37.5 24.7754L30 31.6504L22.5 24.7754" stroke="#009379" stroke-width="0.740741" stroke-linecap="round" stroke-linejoin="round"/>
<rect x="48" y="20.4004" width="1" height="20" fill="#DBE3FF"/>
<path d="M62.408 36.4004V25.1204H69.608V26.2084H63.704V30.1284H69.256V31.2324H63.704V35.2964H69.608V36.4004H62.408ZM71.6703 36.4004V30.2244C71.6703 29.9257 71.6543 29.6217 71.6223 29.3124C71.6009 28.9924 71.5743 28.6777 71.5423 28.3684H72.7903L72.9503 30.1284H72.7582C72.9716 29.5204 73.3076 29.0511 73.7663 28.7204C74.2356 28.3897 74.8009 28.2244 75.4623 28.2244C76.1343 28.2244 76.6783 28.3844 77.0943 28.7044C77.5209 29.0244 77.8089 29.5204 77.9583 30.1924H77.7183C77.9209 29.5844 78.2783 29.1044 78.7903 28.7524C79.3023 28.4004 79.8996 28.2244 80.5823 28.2244C81.4676 28.2244 82.1343 28.4804 82.5823 28.9924C83.0303 29.4937 83.2543 30.2884 83.2543 31.3764V36.4004H81.9583V31.4564C81.9583 30.6991 81.8249 30.1497 81.5583 29.8084C81.2916 29.4564 80.8649 29.2804 80.2783 29.2804C79.6063 29.2804 79.0729 29.5151 78.6783 29.9844C78.2943 30.4431 78.1023 31.0617 78.1023 31.8404V36.4004H76.8063V31.4564C76.8063 30.6991 76.6729 30.1497 76.4063 29.8084C76.1396 29.4564 75.7129 29.2804 75.1263 29.2804C74.4543 29.2804 73.9263 29.5151 73.5423 29.9844C73.1583 30.4431 72.9663 31.0617 72.9663 31.8404V36.4004H71.6703ZM88.7731 36.5444C88.0585 36.5444 87.4345 36.3791 86.9011 36.0484C86.3678 35.7071 85.9518 35.2271 85.6531 34.6084C85.3651 33.9897 85.2211 33.2484 85.2211 32.3844C85.2211 31.5097 85.3651 30.7631 85.6531 30.1444C85.9518 29.5257 86.3678 29.0511 86.9011 28.7204C87.4345 28.3897 88.0585 28.2244 88.7731 28.2244C89.4985 28.2244 90.1225 28.4111 90.6451 28.7844C91.1785 29.1471 91.5305 29.6431 91.7011 30.2724H91.5091L91.6851 28.3684H92.9331C92.9011 28.6777 92.8691 28.9924 92.8371 29.3124C92.8158 29.6217 92.8051 29.9257 92.8051 30.2244V36.4004H91.5091V34.5124H91.6851C91.5145 35.1417 91.1625 35.6377 90.6291 36.0004C90.0958 36.3631 89.4771 36.5444 88.7731 36.5444ZM89.0291 35.4884C89.7971 35.4884 90.4051 35.2271 90.8531 34.7044C91.3011 34.1711 91.5251 33.3977 91.5251 32.3844C91.5251 31.3604 91.3011 30.5871 90.8531 30.0644C90.4051 29.5311 89.7971 29.2644 89.0291 29.2644C88.2718 29.2644 87.6638 29.5311 87.2051 30.0644C86.7571 30.5871 86.5331 31.3604 86.5331 32.3844C86.5331 33.3977 86.7571 34.1711 87.2051 34.7044C87.6638 35.2271 88.2718 35.4884 89.0291 35.4884ZM95.3109 36.4004V28.3684H96.6069V36.4004H95.3109ZM95.1509 26.5444V25.0884H96.7509V26.5444H95.1509ZM99.1234 36.4004V24.6244H100.419V36.4004H99.1234Z" fill="#2D2D2D"/>
</svg>
