<svg width="465" height="61" viewBox="0 0 465 61" fill="none" xmlns="http://www.w3.org/2000/svg">
<rect x="0.5" y="0.900391" width="464" height="59" rx="19.5" fill="white"/>
<rect x="0.5" y="0.900391" width="464" height="59" rx="19.5" stroke="#D8D8D8"/>
<path opacity="0.2" d="M30 32.9004C32.7614 32.9004 35 30.6618 35 27.9004C35 25.139 32.7614 22.9004 30 22.9004C27.2386 22.9004 25 25.139 25 27.9004C25 30.6618 27.2386 32.9004 30 32.9004Z" fill="#009379"/>
<path d="M30 32.9004C32.7614 32.9004 35 30.6618 35 27.9004C35 25.139 32.7614 22.9004 30 22.9004C27.2386 22.9004 25 25.139 25 27.9004C25 30.6618 27.2386 32.9004 30 32.9004Z" stroke="#009379" stroke-width="0.740741" stroke-miterlimit="10"/>
<path d="M22.4219 37.2756C23.1898 35.9452 24.2944 34.8405 25.6247 34.0724C26.9549 33.3043 28.4639 32.8999 30 32.8999C31.5361 32.8999 33.0451 33.3043 34.3753 34.0724C35.7056 34.8405 36.8102 35.9452 37.5781 37.2756" stroke="#009379" stroke-width="0.740741" stroke-linecap="round" stroke-linejoin="round"/>
<rect x="48" y="20.4004" width="1" height="20" fill="#DBE3FF"/>
<path d="M62.408 36.4004V25.1204H69.448V26.2084H63.736V30.1604H69.096V31.2484H63.736V36.4004H62.408ZM73.9085 36.5444C72.9592 36.5444 72.2392 36.2831 71.7485 35.7604C71.2685 35.2377 71.0285 34.4377 71.0285 33.3604V28.3684H72.3245V33.3284C72.3245 34.0644 72.4738 34.6084 72.7725 34.9604C73.0712 35.3017 73.5352 35.4724 74.1645 35.4724C74.8685 35.4724 75.4338 35.2431 75.8605 34.7844C76.2872 34.3257 76.5005 33.7124 76.5005 32.9444V28.3684H77.7965V36.4004H76.5325V34.5924H76.7405C76.5165 35.2111 76.1538 35.6911 75.6525 36.0324C75.1618 36.3737 74.5805 36.5444 73.9085 36.5444ZM80.3109 36.4004V24.6244H81.6069V36.4004H80.3109ZM84.1234 36.4004V24.6244H85.4194V36.4004H84.1234ZM92.2518 36.4004V25.1204H93.2918L100.524 34.7204H100.156V25.1204H101.388V36.4004H100.364L93.1318 26.8004H93.4838V36.4004H92.2518ZM107.117 36.5444C106.402 36.5444 105.778 36.3791 105.245 36.0484C104.712 35.7071 104.296 35.2271 103.997 34.6084C103.709 33.9897 103.565 33.2484 103.565 32.3844C103.565 31.5097 103.709 30.7631 103.997 30.1444C104.296 29.5257 104.712 29.0511 105.245 28.7204C105.778 28.3897 106.402 28.2244 107.117 28.2244C107.842 28.2244 108.466 28.4111 108.989 28.7844C109.522 29.1471 109.874 29.6431 110.045 30.2724H109.853L110.029 28.3684H111.277C111.245 28.6777 111.213 28.9924 111.181 29.3124C111.16 29.6217 111.149 29.9257 111.149 30.2244V36.4004H109.853V34.5124H110.029C109.858 35.1417 109.506 35.6377 108.973 36.0004C108.44 36.3631 107.821 36.5444 107.117 36.5444ZM107.373 35.4884C108.141 35.4884 108.749 35.2271 109.197 34.7044C109.645 34.1711 109.869 33.3977 109.869 32.3844C109.869 31.3604 109.645 30.5871 109.197 30.0644C108.749 29.5311 108.141 29.2644 107.373 29.2644C106.616 29.2644 106.008 29.5311 105.549 30.0644C105.101 30.5871 104.877 31.3604 104.877 32.3844C104.877 33.3977 105.101 34.1711 105.549 34.7044C106.008 35.2271 106.616 35.4884 107.373 35.4884ZM113.655 36.4004V30.2244C113.655 29.9257 113.639 29.6217 113.607 29.3124C113.585 28.9924 113.559 28.6777 113.527 28.3684H114.775L114.935 30.1284H114.743C114.956 29.5204 115.292 29.0511 115.751 28.7204C116.22 28.3897 116.785 28.2244 117.447 28.2244C118.119 28.2244 118.663 28.3844 119.079 28.7044C119.505 29.0244 119.793 29.5204 119.943 30.1924H119.703C119.905 29.5844 120.263 29.1044 120.775 28.7524C121.287 28.4004 121.884 28.2244 122.567 28.2244C123.452 28.2244 124.119 28.4804 124.567 28.9924C125.015 29.4937 125.239 30.2884 125.239 31.3764V36.4004H123.943V31.4564C123.943 30.6991 123.809 30.1497 123.543 29.8084C123.276 29.4564 122.849 29.2804 122.263 29.2804C121.591 29.2804 121.057 29.5151 120.663 29.9844C120.279 30.4431 120.087 31.0617 120.087 31.8404V36.4004H118.791V31.4564C118.791 30.6991 118.657 30.1497 118.391 29.8084C118.124 29.4564 117.697 29.2804 117.111 29.2804C116.439 29.2804 115.911 29.5151 115.527 29.9844C115.143 30.4431 114.951 31.0617 114.951 31.8404V36.4004H113.655ZM131.27 36.5444C130.011 36.5444 129.019 36.1817 128.294 35.4564C127.568 34.7204 127.206 33.7017 127.206 32.4004C127.206 31.5577 127.366 30.8271 127.686 30.2084C128.006 29.5791 128.454 29.0937 129.03 28.7524C129.606 28.4004 130.267 28.2244 131.014 28.2244C131.75 28.2244 132.368 28.3791 132.87 28.6884C133.371 28.9977 133.755 29.4404 134.022 30.0164C134.288 30.5817 134.422 31.2537 134.422 32.0324V32.5124H128.198V31.6964H133.574L133.302 31.9044C133.302 31.0511 133.11 30.3844 132.726 29.9044C132.342 29.4244 131.771 29.1844 131.014 29.1844C130.214 29.1844 129.59 29.4671 129.142 30.0324C128.694 30.5871 128.47 31.3391 128.47 32.2884V32.4324C128.47 33.4351 128.715 34.1977 129.206 34.7204C129.707 35.2324 130.406 35.4884 131.302 35.4884C131.782 35.4884 132.23 35.4191 132.646 35.2804C133.072 35.1311 133.478 34.8911 133.862 34.5604L134.31 35.4724C133.958 35.8137 133.51 36.0804 132.966 36.2724C132.432 36.4537 131.867 36.5444 131.27 36.5444Z" fill="#2D2D2D"/>
</svg>
